<svg xmlns="http://www.w3.org/2000/svg" xmlns:xlink="http://www.w3.org/1999/xlink" width="200" height="40" viewBox="0 0 100 20"><defs><path id="w2j6a" d="M278.99 66.06l7.3-7.06h.25v4.26h5.7v3.34h-5.7v6.02c0 1.87 1.11 2.8 2.9 2.8a5.8 5.8 0 0 0 3.53-1.14v3.44a8.73 8.73 0 0 1-4.48 1.05 5.84 5.84 0 0 1-4.86-2.12c-.26-.33-.52-.81-.7-1.34-.17-.52-.26-1.53-.26-3V66.6H279z"/><path id="w2j6b" d="M262.7 63.69v1.87a12.33 12.33 0 0 1 7.12-2.2c1.4 0 2.71.24 3.92.72a5.1 5.1 0 0 1 2.55 1.97c.62.93.95 2.16.95 3.97v8.5h-4.2v-7.8c0-1.52-.58-2.61-1.28-3.26-.7-.65-1.87-1.07-3.52-1.07-2.11 0-4.02.8-5.54 2.2v9.92h-4.28V63.7z"/><path id="w2j6c" d="M239.26 68.78a4.49 4.49 0 0 1 2.15-2.25 8.15 8.15 0 0 1 3.9-.84c1.56 0 2.73.38 3.65.91a3.64 3.64 0 0 1 1.83 2.17zm15.81 2.34c0-1.72-.38-3.67-2.19-5.35-1.75-1.62-4.18-2.57-7.43-2.57-3.37 0-6.18.5-8.07 2.2a7.15 7.15 0 0 0-2.63 5.58 7.49 7.49 0 0 0 4.65 6.81c1.65.79 4.01 1.08 6.7 1.08 4.02 0 7.04-.89 8.63-1.97v-3.07a16.62 16.62 0 0 1-7.9 1.82c-2.28 0-3.45-.08-5.44-.94-1.41-.6-2.5-1.88-2.5-3.2l16.18-.01z"/><path id="w2j6d" d="M229.74 63.69h4.79l-9.89 14.88h-1.56l-10.12-14.88h4.83l6.09 9.35z"/><path id="w2j6e" d="M211.52 74.53v3.55c-2.36.56-4.66.84-6.91.84-3.72 0-6.46-.7-8.56-2.1A6.37 6.37 0 0 1 193 71.2c0-2.37.9-4.34 2.94-5.8 2.04-1.45 4.68-2.11 8.19-2.11a22.06 22.06 0 0 1 6.9 1.05v3.62a16.53 16.53 0 0 0-6.63-1.33c-1.96 0-4.06.49-5.27 1.26a3.72 3.72 0 0 0-1.8 3.21c0 1.31.76 2.43 2 3.21 1.3.84 3.78 1.22 5.96 1.22 1.81 0 3.88-.33 6.23-1"/></defs><g><g transform="translate(-193 -59)"><g><use xlink:href="#w2j6a"/></g><g><use xlink:href="#w2j6b"/></g><g><use xlink:href="#w2j6c"/></g><g><use xlink:href="#w2j6d"/></g><g><use fill="#4a90e2" xlink:href="#w2j6e"/></g></g></g></svg>